<svg width="46" height="44" viewBox="0 0 46 44" fill="none" xmlns="http://www.w3.org/2000/svg">
<g clip-path="url(#clip0_1347_5825)">
<path d="M40.9845 21.9953C40.9845 27.308 40.9648 32.6206 41 37.9321C41.0073 39.08 40.1527 40.0021 38.916 40C28.2912 39.9741 17.6674 39.9855 7.04252 39.9845C5.74368 39.9845 5.00104 39.2427 5 37.9446C5 27.308 5 16.6703 5 6.03263C5 4.73867 5.74575 4 7.04874 4C17.6736 4 28.2984 4 38.9223 4C40.2501 4 40.9834 4.73245 40.9834 6.05853C40.9834 11.3711 40.9834 16.6838 40.9834 21.9964L40.9845 21.9953ZM6.2367 13.9373V14.3932C6.2367 22.1984 6.2367 30.0036 6.2367 37.8099C6.2367 38.5651 6.41899 38.7485 7.17096 38.7485C17.7161 38.7485 28.2601 38.7485 38.8052 38.7485C39.5613 38.7485 39.7467 38.5651 39.7467 37.8161C39.7467 29.9974 39.7467 22.1797 39.7467 14.361C39.7467 14.2243 39.7467 14.0875 39.7467 13.9373H6.2367ZM6.2367 12.662H39.7291C39.7364 12.5884 39.7457 12.5377 39.7457 12.488C39.7457 10.3175 39.7498 8.14608 39.7447 5.97565C39.7436 5.45662 39.4909 5.23699 38.9233 5.23699C28.3026 5.23699 17.6808 5.23699 7.06013 5.23699C6.46043 5.23699 6.23877 5.45765 6.2367 6.05232C6.23359 7.26651 6.2367 8.48174 6.2367 9.69593C6.2367 10.676 6.2367 11.656 6.2367 12.661V12.662Z" fill="black"/>
<path d="M14.3797 32.5833C14.4584 32.3948 14.5744 32.0125 14.7722 31.6768C15.027 31.2448 15.3367 30.8418 15.6454 30.445C15.8069 30.2378 15.8681 30.0596 15.7044 29.8296C15.6309 29.726 15.5656 29.6017 15.547 29.4784C15.4341 28.7377 14.9307 28.5367 14.2719 28.5025C13.9519 28.4859 13.6339 28.4113 13.318 28.3471C12.4345 28.1679 11.8576 27.4313 11.8203 26.5258C11.7872 25.7084 11.956 24.9791 12.7111 24.5657C13.0943 24.3554 13.5604 24.2186 13.9954 24.1989C14.8592 24.1606 15.4144 23.8581 15.6454 22.962C15.7334 22.618 15.7893 22.387 15.549 22.1C15.2518 21.7436 14.9949 21.3541 14.7329 20.9697C14.1497 20.115 14.2678 19.2075 15.055 18.4191C15.8453 17.6276 16.7402 17.5085 17.6019 18.0938C18.0618 18.4056 18.502 18.7465 18.966 19.05C19.0675 19.1163 19.2498 19.1246 19.3689 19.0832C19.7087 18.9651 20.0463 18.8273 20.3622 18.6563C20.4938 18.5849 20.6274 18.4222 20.6595 18.2782C20.7838 17.725 20.8439 17.1583 20.9702 16.6061C21.1722 15.7224 21.8858 15.1857 22.7901 15.165C23.3701 15.1516 23.9253 15.1899 24.3955 15.5887C24.7787 15.914 24.989 16.3305 25.0718 16.8174C25.1557 17.3137 25.2179 17.8141 25.3287 18.3041C25.3608 18.445 25.5038 18.5994 25.6363 18.6719C25.9408 18.8366 26.2816 18.935 26.5872 19.0998C26.784 19.2054 26.9114 19.1619 27.0698 19.0448C27.4955 18.7299 27.9254 18.4201 28.3625 18.1207C29.2325 17.523 30.1336 17.638 30.9446 18.4429C31.6976 19.1899 31.8002 20.1067 31.2139 20.9666C30.9229 21.3935 30.6235 21.8151 30.3118 22.2274C30.1574 22.4315 30.0922 22.6025 30.2507 22.847C30.3884 23.0604 30.5013 23.307 30.5562 23.5546C30.637 23.9182 30.8545 24.0384 31.1932 24.0808C31.6914 24.144 32.1886 24.23 32.6816 24.3274C33.5423 24.4973 34.1389 25.2412 34.1638 26.1207C34.1803 26.6999 34.1472 27.2572 33.7526 27.7296C33.4408 28.1036 33.042 28.3243 32.5687 28.4093C32.0612 28.5004 31.5516 28.5885 31.0409 28.6548C30.8162 28.6838 30.6929 28.7708 30.637 28.9936C30.5935 29.1666 30.5376 29.352 30.435 29.4939C30.0653 30.0016 30.2289 30.3932 30.5811 30.8501C30.9602 31.3422 31.3185 31.8913 31.5164 32.4725C31.7763 33.2339 31.331 34.0627 30.5179 34.5983C29.8374 35.0469 29.13 35.0573 28.4443 34.6128C27.9678 34.3041 27.5121 33.9633 27.0553 33.6245C26.8937 33.5043 26.7653 33.4743 26.5716 33.5758C26.2536 33.7436 25.9036 33.8503 25.5825 34.014C25.4696 34.072 25.3515 34.2119 25.3256 34.3331C25.2086 34.8884 25.1412 35.453 25.0242 36.0083C24.8274 36.9335 24.1697 37.4722 23.223 37.523C22.6005 37.5561 22.0122 37.4857 21.5275 37.0309C21.1598 36.6848 20.9909 36.2518 20.9143 35.768C20.8376 35.2842 20.7693 34.7983 20.6657 34.3196C20.6398 34.2005 20.5145 34.0731 20.4006 34.0099C20.1758 33.8866 19.9065 33.8389 19.6931 33.7011C19.3068 33.4515 19.0106 33.5188 18.676 33.813C18.3383 34.1104 17.952 34.3549 17.5729 34.5994C16.9318 35.0117 16.2503 35.0676 15.5988 34.6605C14.9183 34.2347 14.4149 33.6597 14.3817 32.5843L14.3797 32.5833ZM30.4412 19.7649C30.204 19.5193 29.9928 19.252 29.7317 19.0469C29.4966 18.8625 29.2429 18.9837 29.0202 19.1443C28.4443 19.5608 27.8663 19.9731 27.2915 20.3885C27.0098 20.5926 26.7487 20.575 26.4328 20.4165C25.917 20.1596 25.3815 19.9244 24.8305 19.7597C24.439 19.6426 24.2308 19.4333 24.1666 19.0552C24.0527 18.3818 23.9501 17.7063 23.8362 17.0319C23.7606 16.5885 23.5451 16.4103 23.0997 16.402C22.4773 16.3906 22.2867 16.5066 22.1945 16.9998C22.063 17.696 21.9459 18.3963 21.8309 19.0956C21.774 19.4406 21.5782 19.6188 21.2478 19.7338C20.6906 19.9275 20.1354 20.1409 19.6123 20.4103C19.2654 20.5885 18.9816 20.5906 18.6802 20.3771C18.1333 19.9886 17.5885 19.595 17.0426 19.2054C16.6066 18.8936 16.3621 18.9205 15.9602 19.3194C15.5967 19.6809 15.5749 19.9451 15.8794 20.374C16.2606 20.9107 16.6438 21.4463 17.0271 21.9819C17.2601 22.3082 17.2622 22.6108 17.0602 22.9816C16.8033 23.453 16.591 23.9596 16.4439 24.4756C16.3238 24.8962 16.1146 25.1158 15.6909 25.178C15.0788 25.2681 14.4708 25.3831 13.8597 25.4815C13.5324 25.5344 13.1813 25.5882 13.1057 25.9726C12.9731 26.6512 13.0674 27.0966 13.8576 27.1951C14.4832 27.2738 15.1037 27.3981 15.7262 27.5048C16.1052 27.5701 16.3186 27.768 16.4294 28.1658C16.5776 28.6952 16.7888 29.2142 17.0364 29.7053C17.2177 30.0637 17.2177 30.3632 16.995 30.6781C16.6086 31.2272 16.2192 31.7742 15.8349 32.3253C15.5283 32.7656 15.5604 32.9853 15.983 33.4007C16.3393 33.7519 16.5848 33.7706 17.0053 33.4701C17.5201 33.1023 18.0359 32.7356 18.5434 32.3585C18.8914 32.1016 19.2301 32.0798 19.6258 32.2735C20.123 32.516 20.6346 32.7397 21.1608 32.9065C21.5616 33.034 21.7626 33.265 21.8247 33.6607C21.9262 34.3103 22.0371 34.9589 22.1437 35.6074C22.2194 36.0643 22.4255 36.2549 22.8553 36.2673C23.4964 36.286 23.6984 36.1658 23.7927 35.6602C23.9232 34.964 24.0402 34.2637 24.1521 33.5644C24.208 33.2142 24.4069 33.0443 24.7383 32.9324C25.2852 32.748 25.8342 32.5481 26.3417 32.2777C26.7156 32.0788 27.017 32.0829 27.3422 32.316C27.8767 32.7004 28.4111 33.0847 28.9477 33.4681C29.333 33.7426 29.5774 33.7447 29.8892 33.4826C30.3263 33.1148 30.4143 32.8402 30.1895 32.4134C30.0704 32.1865 29.912 31.9793 29.7576 31.7731C29.4956 31.4209 29.218 31.0811 28.9591 30.7278C28.7322 30.4181 28.7415 30.1031 28.9052 29.7488C29.1631 29.1894 29.3775 28.6092 29.5961 28.0332C29.7131 27.7255 29.9109 27.5514 30.2413 27.5007C30.9425 27.3929 31.6427 27.2811 32.3388 27.1453C32.8245 27.0511 32.9488 26.8128 32.9302 26.1394C32.9188 25.7364 32.7334 25.5489 32.2766 25.4743C31.6531 25.3717 31.0306 25.266 30.4071 25.1645C29.9606 25.092 29.6841 24.8879 29.5608 24.403C29.4324 23.8975 29.2066 23.4074 28.9611 22.9444C28.7654 22.5745 28.7716 22.2689 29.0067 21.9394C29.391 21.4049 29.7721 20.8672 30.145 20.3253C30.2444 20.1803 30.3118 20.0135 30.4423 19.7638L30.4412 19.7649Z" fill="black"/>
<path d="M17.3908 6.48232C20.0402 6.48232 22.6897 6.48232 25.3392 6.48232C26.5811 6.48232 27.332 7.24067 27.3341 8.49009C27.3341 8.86512 27.3382 9.24015 27.333 9.61415C27.3185 10.6263 26.5179 11.4365 25.506 11.4385C22.4297 11.4448 19.3546 11.4417 16.2783 11.4406C15.8154 11.4406 15.5523 11.2127 15.5502 10.8252C15.5492 10.4367 15.8112 10.2057 16.2721 10.2057C19.2448 10.2036 22.2174 10.2057 25.19 10.2047C25.8975 10.2047 26.0953 10.0089 26.0974 9.31578C26.0974 9.00602 26.1077 8.69522 26.0932 8.38545C26.0746 7.97831 25.8384 7.74831 25.4334 7.72034C25.3433 7.71413 25.2522 7.71827 25.1621 7.71827C19.9926 7.71827 14.8231 7.71827 9.6536 7.71827C8.90164 7.71827 8.72038 7.90061 8.71935 8.65689C8.71935 8.88999 8.71935 9.12205 8.71935 9.35515C8.72245 9.99747 8.93168 10.2026 9.58732 10.2047C10.0917 10.2057 10.5951 10.2026 11.0995 10.2057C11.5584 10.2088 11.8225 10.4409 11.8204 10.8283C11.8173 11.2148 11.5542 11.4385 11.0892 11.4406C10.4946 11.4437 9.90012 11.4468 9.30559 11.4406C8.29468 11.4282 7.49611 10.6243 7.48265 9.61104C7.47747 9.19768 7.47954 8.78431 7.48265 8.36991C7.4899 7.28315 8.28018 6.48439 9.36463 6.48336C12.04 6.47921 14.7154 6.48232 17.3908 6.48232Z" fill="black"/>
<path d="M31.0556 8.97485C31.0505 9.67311 30.4912 10.2129 29.7848 10.2004C29.1094 10.189 28.574 9.63271 28.5791 8.94791C28.5843 8.24757 29.1405 7.71092 29.85 7.72336C30.5284 7.73475 31.0619 8.28798 31.0567 8.97485H31.0556Z" fill="black"/>
<path d="M34.7793 8.97167C34.7752 9.66994 34.2159 10.2118 33.5105 10.2004C32.8342 10.19 32.2976 9.63575 32.3018 8.95095C32.3059 8.25062 32.8611 7.71293 33.5696 7.72329C34.249 7.73365 34.7824 8.2848 34.7793 8.97167Z" fill="black"/>
<path d="M37.268 10.2005C36.5834 10.2026 36.0334 9.66492 36.024 8.9853C36.0147 8.27771 36.5554 7.72449 37.2566 7.72242C37.9578 7.72035 38.5068 8.27253 38.5016 8.97494C38.4964 9.65663 37.9516 10.1974 37.268 10.1995V10.2005Z" fill="black"/>
<path d="M14.302 10.8075C14.3102 11.1535 14.0523 11.4281 13.7095 11.4405C13.3646 11.4529 13.0849 11.1991 13.0673 10.8572C13.0487 10.4946 13.3169 10.2087 13.6784 10.2056C14.0244 10.2025 14.2937 10.4625 14.302 10.8075Z" fill="black"/>
<path d="M22.9859 31.2976C20.2266 31.2934 18.0256 29.0795 18.0308 26.3113C18.0359 23.5607 20.2556 21.3717 23.0376 21.3748C25.7586 21.3779 27.9637 23.6136 27.9544 26.361C27.9451 29.1002 25.7296 31.3017 22.9869 31.2986L22.9859 31.2976ZM19.2685 26.3527C19.2778 28.374 20.9672 30.0606 22.9807 30.0596C25.0398 30.0596 26.7322 28.3543 26.7156 26.2989C26.6991 24.2797 25.0025 22.6024 22.9848 22.6117C20.9402 22.6211 19.2592 24.3129 19.2685 26.3527Z" fill="black"/>
</g>
<defs>
<clipPath id="clip0_1347_5825">
<rect width="36" height="36" fill="white" transform="translate(5 4)"/>
</clipPath>
</defs>
</svg>
